<svg xmlns="http://www.w3.org/2000/svg" xmlns:xlink="http://www.w3.org/1999/xlink" version="1.1" x="0px" y="0px" viewBox="0 0 100 100" enable-background="new 0 0 100 100" xml:space="preserve"><g><path style="fill:white" fill-rule="evenodd" clip-rule="evenodd" d="M93.151,39.049l-5.223-26.086C87.31,9.982,83.824,5,76.746,5H50.305H23.863   c-7.075,0-10.675,4.982-11.173,7.963L7.153,39.352C3.803,39.971,0,43.02,0,46.619v22.098c0,3.227,4,5.961,4,6.949v16.139   c3,2.113,5.334,3.602,8.314,3.602c2.855,0,5.686-1.615,8.686-3.602V76.287L33.67,77h16.635h16.635L80,76.287v15.518   c3,1.986,5.893,3.602,8.75,3.602c2.855,0,5.25-1.488,8.25-3.602V75.666c0-0.988,3-3.723,3-6.949V46.619   C100,43.02,96.381,39.668,93.151,39.049z M79.231,34.955l-28.927-1.246l-28.923,1.246c-5.217,0.244-7.823-1.367-7.075-6.211   l1.488-7.562C17.532,12.738,26.349,12,35.286,12h15.019h14.897c9.062,0,17.875,0.738,19.612,9.182l1.367,7.752   C86.926,33.777,84.319,35.199,79.231,34.955z"></path><path style="fill:white" fill-rule="evenodd" clip-rule="evenodd" d="M26.221,21.297c0,2.107,1.118,4.094,2.609,5.211c0,0.125,0.125,0.5-0.124,0.621   c-0.993,1.246-7.57,2.734-7.947,4.592c-0.121,0.5-0.37,1.244-0.246,1.244c0.374,0,11.793-0.496,12.167-0.496   c0.37,0,9.806-0.373,10.176-0.373c0.128-0.125,0.128-0.246-0.121-0.869c-0.868-1.861-6.209-3.102-7.448-3.971   c-0.249-0.248-0.249-0.623-0.125-0.748c1.492-1.117,2.36-3.104,2.36-5.211c0-3.602-2.484-6.457-5.59-6.457   C28.706,14.84,26.221,17.695,26.221,21.297"></path><path style="fill:white" fill-rule="evenodd" clip-rule="evenodd" d="M74.14,21.297c0,2.107-1.118,4.094-2.606,5.211c0,0.125-0.125,0.5,0,0.748   c1.118,1.119,7.698,2.607,8.068,4.465c0.125,0.5,0.249,1.244,0.125,1.244c-0.246,0-11.793-0.496-12.039-0.496   c-0.377,0-9.81-0.373-10.184-0.373c-0.121-0.125-0.121-0.246,0-0.869c0.869-1.861,6.331-3.102,7.574-3.971   c0.249-0.248,0.249-0.623,0.124-0.748c-1.488-1.117-2.485-2.977-2.485-5.211c0-3.602,2.61-6.457,5.712-6.457   C71.658,14.84,74.14,17.695,74.14,21.297"></path></g></svg>