<svg xmlns="http://www.w3.org/2000/svg" xmlns:xlink="http://www.w3.org/1999/xlink" version="1.1" x="0px" y="0px" viewBox="0 0 100 100" enable-background="new 0 0 100 100" xml:space="preserve"><path style="fill:white" d="M48.017,5.767c-4.877,0.802-9.465,3.387-12.641,7.171c-3.858,4.6-4.961,10.398-3.778,16.214  c1.33,6.539,4.654,12.54,7.515,18.501c2.812,5.861,5.51,11.904,6.561,18.365c0.979,6.012,0.158,12.138-1.217,18.024  c-0.33,1.413-2.364,7.326-2.341,7.741c0.074,1.368,6.63,3.411,6.773,3.007c0.129-0.366,2.972-10.034,3.516-13.161  c1.122-6.447,1.296-13-0.134-19.41c-1.35-6.049-3.831-11.761-6.494-17.332c-2.693-5.634-6.067-11.379-7.199-17.593  c-0.647-3.556-0.025-6.959,2.348-9.762c2.235-2.635,5.491-4.384,8.93-4.755c3.19-0.345,6.439,0.561,8.809,2.775  c1.852,1.736,2.974,4.069,3.091,6.536c0.243,5.073-4.205,9.35-9.248,7.444c4.903,1.324,8.95-3.007,8.471-7.362  c-0.449-4.09-4.039-7.29-8.309-7.776c-4.478-0.51-8.68,2.062-10.652,6.046c-2.382,4.811-1.156,10.741,2.853,14.279  c4.312,3.806,10.652,4.556,15.747,1.906c5.156-2.681,8.239-8.464,8.238-14.195C68.854,11.483,58.388,4.062,48.017,5.767  C43.14,6.568,58.388,4.062,48.017,5.767z"></path></svg>