<svg xmlns="http://www.w3.org/2000/svg" xmlns:xlink="http://www.w3.org/1999/xlink" version="1.1" x="0px" y="0px" viewBox="0 0 90 90" enable-background="new 0 0 90 90" xml:space="preserve"><path style="fill:white" d="M69.4,28.6c0,0-3.4-2-4.3-3c-2.3-2.8-3.7-6.2-6.7-8.2c-3.5-2.3-7.9-3-12.4-3c-2.3,0-4.5,0.3-6.6,0.8c-2.8-1.8-6-2.8-9.6-2.8  c-2.9,0-5.7,0.7-8.2,2c0.3,0,0.6,0,0.9,0c3.9,0,7.5,1.3,10.4,3.4c-8.3,4.6-14,13.5-14,23.7c0,15,12.2,28,27.1,27.1  c1.9-0.1,3.6-0.4,5-0.9c1.2,4.4,5.3,6.3,7.8,10.5c0.1-1.1,0-2.6-0.2-3.8c-0.5-3.2-1.9-6.1-3.9-8.3c3.3-2.1,4.6-4.3,4.9-7.7  c-2.9,3.8-7.5,6.3-12.6,6.3c-8.1,0-14.8-6.1-15.7-14c-0.1-0.6-0.1-1.2-0.1-1.8c0-0.8,0.1-1.7,0.2-2.5c0.8,6.9,5.3,12.8,11.5,15.4  c-3-3.4-4.9-7.9-4.9-12.8c0-6.6,3.3-12.5,8.4-15.9c3.1-2.1,6.8-3.3,10.8-3.3c3.3,0,6.5,0.9,9.2,2.4l0.3,0.2c0.2,0.1,0.4,0.2,0.6,0.3  c0,0,0,0,0.1,0c0,0,0,0,0,0c0.9,0.3,2,0,2.6-0.9C70.6,30.7,70.4,29.3,69.4,28.6z"></path></svg>