<svg xmlns="http://www.w3.org/2000/svg" xmlns:xlink="http://www.w3.org/1999/xlink" version="1.1" x="0px" y="0px" viewBox="0 0 100 100" enable-background="new 0 0 100 100" xml:space="preserve"><g><path style="fill:white" d="M89.826,40c-3.183,0-4.88-1.526-6.119-2.641C82.701,36.454,82.196,36,80.931,36s-1.77,0.454-2.775,1.359   C76.917,38.474,75.219,40,72.037,40c-3.182,0-4.878-1.527-6.117-2.642C64.916,36.454,64.411,36,63.149,36   c-1.264,0-1.769,0.454-2.774,1.359C59.136,38.473,57.439,40,54.257,40s-4.877-1.527-6.116-2.642C47.136,36.454,46.632,36,45.369,36   c-1.262,0-1.766,0.454-2.77,1.358C41.36,38.473,39.665,40,36.483,40c-3.181,0-4.877-1.527-6.115-2.642   C29.364,36.454,28.86,36,27.598,36s-1.766,0.454-2.77,1.358C23.589,38.473,21.894,40,18.712,40s-4.877-1.527-6.116-2.642   C11.592,36.454,11.088,36,9.826,36c-1.381,0-2.5-1.119-2.5-2.5s1.119-2.5,2.5-2.5c3.181,0,4.877,1.527,6.116,2.642   C16.946,34.546,17.45,35,18.712,35c1.262,0,1.766-0.454,2.77-1.358C22.721,32.527,24.417,31,27.598,31s4.877,1.527,6.116,2.642   C34.718,34.546,35.222,35,36.483,35s1.766-0.454,2.77-1.358C40.492,32.527,42.188,31,45.369,31c3.182,0,4.878,1.527,6.117,2.642   C52.491,34.546,52.995,35,54.257,35c1.264,0,1.768-0.454,2.773-1.358C58.27,32.527,59.966,31,63.149,31   c3.181,0,4.877,1.527,6.116,2.642C70.269,34.546,70.774,35,72.037,35c1.265,0,1.77-0.454,2.775-1.359   C76.051,32.526,77.749,31,80.931,31s4.88,1.526,6.119,2.641C88.056,34.546,88.561,35,89.826,35c1.381,0,2.5,1.119,2.5,2.5   S91.207,40,89.826,40z"></path></g><g><path style="fill:white" d="M65.135,56c-3.009,0-4.629-1.656-5.701-2.752C58.506,52.3,58.171,52,57.307,52c-0.861,0-1.196,0.3-2.122,1.247   C54.112,54.344,52.493,56,49.485,56c-3.008,0-4.627-1.656-5.699-2.752C42.858,52.3,42.524,52,41.661,52   c-0.862,0-1.197,0.3-2.124,1.248C38.465,54.344,36.846,56,33.839,56s-4.626-1.656-5.698-2.753C27.214,52.3,26.88,52,26.019,52   c-1.381,0-2.5-1.119-2.5-2.5s1.119-2.5,2.5-2.5c3.007,0,4.626,1.656,5.697,2.752C32.643,50.7,32.977,51,33.839,51   c0.862,0,1.196-0.3,2.123-1.248C37.034,48.656,38.653,47,41.661,47s4.627,1.656,5.699,2.752C48.287,50.7,48.622,51,49.485,51   c0.863,0,1.197-0.3,2.125-1.248C52.681,48.656,54.3,47,57.307,47c3.009,0,4.629,1.656,5.701,2.752C63.936,50.7,64.271,51,65.135,51   c0.863,0,1.198-0.3,2.126-1.248C68.333,48.656,69.953,47,72.962,47c1.381,0,2.5,1.119,2.5,2.5s-1.119,2.5-2.5,2.5   c-0.864,0-1.199,0.3-2.127,1.249C69.763,54.344,68.143,56,65.135,56z"></path></g><g><g><path style="fill:white" d="M80.151,72c-3.008,0-4.628-1.656-5.699-2.752C73.524,68.3,73.191,68,72.327,68c-0.862,0-1.196,0.3-2.124,1.248    C69.132,70.344,67.513,72,64.505,72c-3.008,0-4.628-1.656-5.7-2.751C57.877,68.3,57.542,68,56.678,68c-1.381,0-2.5-1.119-2.5-2.5    s1.119-2.5,2.5-2.5c3.009,0,4.629,1.656,5.701,2.752C63.307,66.7,63.642,67,64.505,67c0.862,0,1.196-0.3,2.124-1.248    C67.7,64.656,69.319,63,72.327,63s4.628,1.656,5.699,2.752C78.954,66.7,79.288,67,80.151,67c0.862,0,1.196-0.3,2.124-1.248    C83.347,64.656,84.966,63,87.974,63c1.381,0,2.5,1.119,2.5,2.5s-1.119,2.5-2.5,2.5c-0.862,0-1.196,0.3-2.124,1.248    C84.778,70.344,83.159,72,80.151,72z"></path></g><g><path style="fill:white" d="M35.151,72c-3.008,0-4.627-1.656-5.699-2.752C28.525,68.3,28.191,68,27.327,68c-0.862,0-1.197,0.3-2.124,1.248    C24.132,70.344,22.513,72,19.505,72c-3.008,0-4.628-1.656-5.701-2.752C12.877,68.3,12.542,68,11.678,68    c-1.381,0-2.5-1.119-2.5-2.5s1.119-2.5,2.5-2.5c3.008,0,4.628,1.656,5.701,2.752C18.306,66.7,18.641,67,19.505,67    c0.862,0,1.197-0.3,2.124-1.248C22.7,64.656,24.319,63,27.327,63s4.627,1.656,5.699,2.752C33.954,66.7,34.288,67,35.151,67    c0.862,0,1.197-0.3,2.124-1.248C38.347,64.656,39.966,63,42.973,63c1.381,0,2.5,1.119,2.5,2.5s-1.119,2.5-2.5,2.5    c-0.862,0-1.196,0.3-2.123,1.248C39.778,70.344,38.159,72,35.151,72z"></path></g></g></svg>