<svg xmlns="http://www.w3.org/2000/svg" xmlns:xlink="http://www.w3.org/1999/xlink" version="1.1" x="0px" y="0px" viewBox="0 0 100 100" enable-background="new 0 0 100 100" xml:space="preserve"><path style="fill:white" d="M10.292,80.069c0.376-0.936,1.441-1.39,2.375-1.014c2.001,0.804,4.28,0.803,6.28,0.001c0.001-0.001,0.002-0.002,0.003-0.002  c2.87-1.15,6.128-1.15,9-0.001c0.001,0.001,0.002,0.001,0.003,0.001c2.004,0.806,4.282,0.804,6.281,0.002  c0.001-0.001,0.002-0.002,0.003-0.002c2.871-1.15,6.13-1.15,9.003,0c0.936,0.375,1.391,1.438,1.016,2.375  c-0.286,0.713-0.972,1.147-1.696,1.147c-0.226,0-0.456-0.043-0.679-0.132c-2.004-0.802-4.28-0.802-6.284,0  c-0.003,0.001-0.007,0.002-0.01,0.003c-1.432,0.574-2.943,0.865-4.492,0.865c-1.551,0-3.066-0.292-4.502-0.868c0,0,0,0-0.001,0  c-2.003-0.802-4.279-0.802-6.283,0c-0.003,0.001-0.007,0.002-0.01,0.003c-1.432,0.574-2.943,0.865-4.492,0.865  c-1.552,0-3.066-0.292-4.502-0.869C10.371,82.068,9.917,81.005,10.292,80.069z M43.243,85.584c-2.868-1.153-6.125-1.152-8.993-0.004  c-0.003,0.001-0.007,0.002-0.011,0.003c-2.003,0.803-4.279,0.803-6.286,0c-0.002-0.001-0.005-0.001-0.008-0.002  c-2.866-1.15-6.119-1.148-8.984-0.001c-0.003,0.001-0.007,0.002-0.011,0.003c-2.003,0.803-4.279,0.804-6.284,0  c-0.937-0.373-2,0.08-2.375,1.016c-0.375,0.937,0.08,2,1.016,2.375c1.436,0.575,2.951,0.867,4.501,0.867  c1.551,0,3.066-0.292,4.502-0.867c0.001-0.001,0.002-0.001,0.003-0.002c2-0.802,4.279-0.802,6.279,0.001  c0.001,0,0.001,0.001,0.002,0.001c1.437,0.575,2.952,0.867,4.501,0.867c1.551,0,3.066-0.292,4.502-0.867  c0.001-0.001,0.002-0.001,0.003-0.002c2-0.802,4.28-0.802,6.28,0.001c0.223,0.09,0.454,0.133,0.68,0.133  c0.724,0,1.409-0.434,1.695-1.146C44.633,87.023,44.179,85.96,43.243,85.584z M43.242,65.999c-2.873-1.151-6.132-1.149-9.003,0  C34.238,66,34.237,66,34.236,66.001c-1.999,0.802-4.277,0.804-6.281-0.002c-0.001,0-0.002,0-0.003-0.001  c-2.873-1.15-6.13-1.148-9,0.001C18.95,66,18.949,66,18.948,66.001c-2,0.802-4.279,0.803-6.28-0.001  c-0.934-0.375-2,0.078-2.375,1.014s0.078,1.999,1.014,2.375c1.436,0.577,2.95,0.869,4.502,0.869c1.548,0,3.06-0.291,4.492-0.865  c0.003-0.001,0.007-0.002,0.01-0.003c2.003-0.802,4.279-0.802,6.283-0.001c0,0.001,0,0.001,0.001,0.001  c1.437,0.576,2.951,0.868,4.502,0.868c1.548,0,3.06-0.291,4.492-0.865c0.003-0.001,0.007-0.002,0.01-0.003  c2.004-0.802,4.28-0.802,6.284,0c0.223,0.089,0.453,0.132,0.679,0.132c0.724,0,1.41-0.435,1.696-1.147  C44.633,67.438,44.178,66.374,43.242,65.999z M43.242,72.527c-2.875-1.151-6.127-1.151-9.003,0c-2.005,0.805-4.275,0.805-6.284,0  c0,0,0,0-0.001,0c-2.876-1.151-6.127-1.151-9.003,0c-2.006,0.805-4.277,0.805-6.284,0c-0.937-0.372-2,0.08-2.375,1.016  c-0.375,0.937,0.08,2,1.016,2.375c1.438,0.576,2.952,0.868,4.501,0.868c1.549,0,3.064-0.292,4.502-0.868  c2.006-0.804,4.277-0.806,6.284,0c0.001,0,0.002,0,0.003,0.001c1.438,0.575,2.952,0.867,4.499,0.867  c1.549,0,3.064-0.292,4.502-0.868c2.006-0.804,4.276-0.806,6.284,0c0.223,0.089,0.453,0.132,0.679,0.132  c0.724,0,1.41-0.435,1.696-1.147C44.633,73.966,44.178,72.902,43.242,72.527z M66.624,42.145c-0.003-0.005-0.005-0.011-0.008-0.017  l-0.132,0.041C66.573,42.153,66.624,42.145,66.624,42.145z M44.628,11.488c-0.629,0.198-1.257,0.407-1.882,0.634  C43.372,11.897,43.999,11.687,44.628,11.488z M36.417,14.477c0.608-0.252,1.223-0.493,1.846-0.723  C37.639,13.981,37.025,14.225,36.417,14.477z M66.7,36.588c-4.891-0.165-9.881,0.48-14.786,2.027l18.67,51.293l-3.916,1.426  L48.002,40.049c-4.646,1.958-8.792,4.636-12.365,7.846c0,0-0.001,0-0.001-0.001c0,0,0,0,0,0.001  c-4.624-0.44-9.396-0.168-14.17,0.934c-4.771,1.102-9.173,2.946-13.133,5.366C9.25,37.055,19.858,21.41,36.26,14.544  c0.005-0.004,0.01-0.008,0.014-0.012c0.047-0.02,0.096-0.036,0.143-0.056l0,0c0.778-0.323,1.572-0.622,2.375-0.906l-0.609-1.673  l3.432-1.249l0.609,1.673c0.799-0.299,1.6-0.58,2.405-0.833c0,0,0,0,0,0c0.047-0.015,0.094-0.033,0.142-0.048  c0.006,0,0.012,0,0.017,0c16.979-5.284,35.162-0.117,46.88,12.422c-4.588,0.692-9.146,2.11-13.509,4.332  c-4.366,2.225-8.196,5.083-11.455,8.394C66.702,36.588,66.701,36.588,66.7,36.588z M50.083,39.231  c-0.003,0.001-0.006,0.002-0.009,0.003s-0.005,0.002-0.008,0.003L50.083,39.231z M63.586,34.507  c-5.508-12.653-12.753-20.966-18.476-20.99c-1.31,0.417-2.579,0.885-3.776,1.391l-0.2,0.073c-1.242,0.381-2.514,0.839-3.785,1.361  c-3.695,3.14-5.169,12.831-0.664,27.956c3.826-2.991,8.077-5.348,12.676-7.021C53.951,35.605,58.729,34.676,63.586,34.507z"></path></svg>