<svg xmlns="http://www.w3.org/2000/svg" xmlns:xlink="http://www.w3.org/1999/xlink" version="1.1" x="0px" y="0px" viewBox="0 0 100 100" enable-background="new 0 0 100 100" xml:space="preserve"><path style="fill:white" d="M80.938,34.785c0-6.674-5.411-12.084-12.085-12.084c-3.985,0-7.512,1.939-9.712,4.917c-1.261-1.704-2.95-3.073-4.922-3.925  c0.112-2.476,0.733-7.036,3.661-9.527c2.176-1.852,5.463-2.289,9.77-1.293l1.264-5.48c-6.148-1.419-11.097-0.574-14.704,2.511  c-4.216,3.605-5.308,9.327-5.564,12.838c-3.337,0.213-6.301,1.775-8.358,4.155c-2.216-2.564-5.485-4.195-9.141-4.195  c-6.673,0-12.083,5.412-12.083,12.084c0,4.69,2.677,8.747,6.583,10.751c-0.616,1.448-0.958,3.043-0.958,4.718  c0,4.692,2.677,8.749,6.583,10.75c-0.616,1.447-0.958,3.044-0.958,4.719c0,5.158,3.24,9.553,7.791,11.284  c-0.482,1.305-0.759,2.71-0.759,4.185c0,6.673,5.41,12.085,12.085,12.085c6.673,0,12.085-5.412,12.085-12.085  c0-1.346-0.23-2.637-0.637-3.845c5.081-1.429,8.811-6.088,8.811-11.624c0-1.674-0.341-3.269-0.959-4.719  c3.906-2.005,6.584-6.059,6.584-10.75c0-1.673-0.341-3.27-0.959-4.718C78.26,43.531,80.938,39.475,80.938,34.785z"></path></svg>