<?xml version="1.0" encoding="utf-8"?><!DOCTYPE svg PUBLIC "-//W3C//DTD SVG 1.1//EN" "http://www.w3.org/Graphics/SVG/1.1/DTD/svg11.dtd"><svg version="1.1" xmlns="http://www.w3.org/2000/svg" xmlns:xlink="http://www.w3.org/1999/xlink" x="0px" y="0px" viewBox="0 0 100 61.786" enable-background="new 0 0 100 61.786" xml:space="preserve"><path style="fill:white" fill="#010101" d="M87.624,16.126C79.825,8.946,74.415-1.256,59.32,0.127C53.429,0.666,48.468,3.748,43.566,6.28
	C29.075,13.766,13.596,22.164,0,29.171c4.839,5.664,9.779,11.222,15.26,16.245c14.769-7.834,30.461-16.943,45.782-25.105
	C68.656,16.254,78.136,12.412,87.624,16.126z M45.289,7.757l7.384-4.007l11.253,11.992l-7.534,3.877L45.289,7.757z"></path><path style="fill:white" fill="#010101" d="M76.548,16.618c-6.271,0.551-11.436,3.638-16.492,6.399c-15.149,8.276-30.016,16.305-44.303,24.614v12.06
	c5.646-2.789,11.449-5.884,17.229-9.105c5.719-3.188,11.291-6.975,17.476-9.354c1.078,13.686,9.823,21.656,23.875,20.431
	C87.074,60.55,98.976,50.141,99.931,37.54C100.963,23.953,90.234,15.415,76.548,16.618z"></path><polygon style="fill:white" fill="#010101" points="0.246,41.97 5.662,38.771 0,33.11 "></polygon><path style="fill:white" fill="#010101" d="M6.646,40.493l-6.088,3.277l12.488,13.025l0.177-9.903C11.007,44.841,6.646,40.493,6.646,40.493z"></path><path style="fill:white" fill="#010101" d="M46.519,45.17c0.762,1.377,2.482,3.094,3.446,3.446c-0.693-1.194-0.79-2.983-0.984-4.678
	C47.972,44.161,47.273,44.692,46.519,45.17z"></path><polygon style="fill:white" fill="#010101" points="52.228,6.512 48.866,8.337 56.868,16.883 60.3,15.116 "></polygon></svg>